<svg version="1.1" xmlns="http://www.w3.org/2000/svg" xmlns:xlink="http://www.w3.org/1999/xlink" x="0px" y="0px" viewBox="0 0 320 80" style="enable-background:new 0 0 320 80;" xml:space="preserve">
 <style type="text/css">
  .st0{fill:#47B972;}
	.st1{fill:#FFFFFF;}
 </style>
 <g id="logo_on_white-alpha">
  <g id="logotype_4_">
   <path id="XMLID_305_" d="M109.6,41.1v13h-5.4V21h12.9c7.7,0,11.8,3.9,11.8,10.1c0,6.2-4.1,10.1-11.8,10.1H109.6z M109.6,26v10h7.4
			c4.3,0,6.3-1.6,6.3-5c0-3.4-2-5-6.3-5H109.6z">
   </path>
   <path id="XMLID_302_" d="M153.4,54.1h-5v-2.7c-1.6,2-3.9,3.3-7.1,3.3c-6.3,0-11.3-5-11.3-11.9s5-11.9,11.3-11.9
			c3.2,0,5.6,1.3,7.1,3.3v-2.7h5V54.1z M135,42.8c0,4,2.6,7.3,6.8,7.3c4.1,0,6.8-3.1,6.8-7.3c0-4.1-2.7-7.3-6.8-7.3
			C137.6,35.5,135,38.8,135,42.8z">
   </path>
   <path id="XMLID_300_" d="M179.9,39.9v14.3h-5V41.5c0-3.8-2-5.9-5.3-5.9c-3.2,0-5.9,2.1-5.9,6v12.6h-5V31.5h4.9v2.8
			c1.8-2.7,4.6-3.4,7-3.4C176.1,30.9,179.9,34.6,179.9,39.9z">
   </path>
   <path id="XMLID_297_" d="M201.5,34.2V20h5v34.1h-5v-2.7c-1.6,2-3.9,3.3-7.1,3.3c-6.3,0-11.3-5-11.3-11.9s5-11.9,11.3-11.9
			C197.6,30.9,200,32.2,201.5,34.2z M188.1,42.8c0,4,2.6,7.3,6.8,7.3c4.1,0,6.8-3.1,6.8-7.3c0-4.1-2.7-7.3-6.8-7.3
			C190.7,35.5,188.1,38.8,188.1,42.8z">
   </path>
   <path id="XMLID_294_" d="M233.7,54.1h-5v-2.7c-1.6,2-3.9,3.3-7.1,3.3c-6.3,0-11.3-5-11.3-11.9s5-11.9,11.3-11.9
			c3.2,0,5.6,1.3,7.1,3.3v-2.7h5V54.1z M215.3,42.8c0,4,2.6,7.3,6.8,7.3c4.1,0,6.8-3.1,6.8-7.3c0-4.1-2.7-7.3-6.8-7.3
			C217.9,35.5,215.3,38.8,215.3,42.8z">
   </path>
   <path id="XMLID_291_" d="M252.5,21c10.4,0,17.2,6.6,17.2,16.6s-6.8,16.6-17.2,16.6h-13.2V21H252.5z M244.7,26.1v23h7.8
			c7.8,0,11.6-4.8,11.6-11.5c0-6.8-3.8-11.5-11.6-11.5H244.7z">
   </path>
   <path id="XMLID_288_" d="M296.7,42.8c0,6.8-5.2,11.9-12.2,11.9c-7,0-12.2-5.1-12.2-11.9s5.2-11.9,12.2-11.9
			C291.5,30.9,296.7,36,296.7,42.8z M277.4,42.8c0,4.3,3.1,7.3,7.1,7.3c4.1,0,7.1-3,7.1-7.3c0-4.3-3.1-7.3-7.1-7.3
			C280.5,35.5,277.4,38.5,277.4,42.8z">
   </path>
   <path id="XMLID_286_" d="M320,34.5l-3.2,3.4c-1.6-1.5-3.3-2.3-5.4-2.3c-3.8,0-6.7,3-6.7,7.3c0,4.3,2.9,7.3,6.7,7.3
			c2.2,0,4.1-1,5.6-2.4l3.1,3.4c-2.1,2.4-5.1,3.6-8.5,3.6c-7.2,0-11.9-5.1-11.9-11.9s4.7-11.9,11.9-11.9
			C314.9,30.9,318,32.1,320,34.5z">
   </path>
  </g>
  <g id="mark_4_">
   <rect id="XMLID_285_" class="st0" width="80" height="80">
   </rect>
   <path id="XMLID_284_" class="st1" d="M58.5,17.7v11.8l-0.2,0.1c-1.7-1.4-3.9-2.3-6.7-2.3c-3.6,0-6.9,1.3-9.1,3.9l3.4,3.6
			c1.7-1.6,3.5-2.5,5.8-2.5c4.3,0.1,7.1,3.4,7.1,7.8c0,4.4-2.9,7.8-7.3,7.8c-11,0-7.9-20.6-22.7-20.6c-7.4,0-12.6,5.5-12.6,12.8
			v22.3h5.3V50.5l0.2-0.1c1.7,1.4,3.9,2.3,6.7,2.3c3.6,0,6.9-1.3,9.1-3.9l-3.4-3.6c-1.7,1.6-3.5,2.5-5.8,2.5
			c-4.3-0.1-7.1-3.4-7.1-7.8c0-4.4,2.9-7.8,7.3-7.8c11,0,7.9,20.6,22.7,20.6c7.4,0,12.6-5.5,12.6-12.8V17.7H58.5z">
   </path>
  </g>
 </g>
 <g id="logo_on_black-alpha">
 </g>
 <g id="logo_on_green-alpha">
 </g>
</svg>